<svg display="none" xmlns="http://www.w3.org/2000/svg">


		<symbol id="checksvg" viewBox="0 0 14 14" fill="none">
		<g>
		<rect x="0.5" y="0.5" width="13" height="13" stroke="#CACACA"/>
		</g>
		</symbol>
		<!-- Vkontakte -->
				<symbol id="vksvg" viewBox="0 0 36.000000 36.000000">
					<g transform="translate(0.000000,36.000000) scale(0.100000,-0.100000)" stroke="none">
						<path d="M132 349 c-46 -14 -109 -80 -122 -128 -32 -119 92 -243 211 -211 52
					14 115 77 129 130 33 121 -96 245 -218 209z m76 -121 l9 -33 13 28 c11 21 20
					27 47 27 36 0 44 -18 18 -40 -8 -7 -15 -20 -15 -30 0 -10 7 -23 15 -30 8 -7
					15 -21 15 -31 0 -24 -41 -26 -75 -3 -21 14 -24 14 -33 -2 -20 -36 -95 8 -131
					76 -28 53 -27 60 9 60 23 0 33 -6 40 -24 12 -32 30 -42 30 -17 0 11 -5 23 -10
					26 -18 11 0 25 30 25 25 0 31 -5 38 -32z" />
					</g>
				</symbol>
				<!-- Facebook -->
				<symbol id="fbsvg" viewBox="0 0 38.000000 38.000000">
					<g transform="translate(0.000000,38.000000) scale(0.100000,-0.100000)" stroke="none">
						<path d="M135 365 c-52 -18 -111 -82 -125 -134 -33 -123 99 -254 222 -220 56
					15 122 81 137 137 36 131 -107 263 -234 217z m115 -90 c0 -18 -5 -25 -20 -25
					-11 0 -20 -4 -20 -9 0 -5 9 -11 20 -14 11 -3 20 -13 20 -22 0 -9 -9 -19 -20
					-22 -17 -5 -20 -14 -20 -59 0 -51 -1 -54 -25 -54 -24 0 -25 3 -25 55 0 42 -3
					55 -15 55 -8 0 -15 9 -15 20 0 11 7 23 15 26 8 4 15 17 15 30 0 27 23 43 63
					44 22 0 27 -4 27 -25z" />
					</g>
				</symbol>
				<!-- instagram -->
				<symbol id="instagramsvg" viewBox="0 0 38.000000 38.000000">
					<g transform="translate(0.000000,38.000000) scale(0.100000,-0.100000)" stroke="none">
						<path d="M154 370 c-124 -28 -185 -164 -122 -271 94 -160 340 -94 340 91 0
		114 -110 205 -218 180z m134 -82 c16 -16 16 -180 0 -196 -16 -16 -180 -16
		-196 0 -16 16 -16 180 0 196 16 16 180 16 196 0z" />
						<path d="M240 255 c0 -8 7 -15 15 -15 8 0 15 7 15 15 0 8 -7 15 -15 15 -8 0
		-15 -7 -15 -15z" />
						<path d="M164 206 c-10 -26 4 -48 28 -44 17 2 23 10 23 28 0 18 -6 26 -23 28
		-13 2 -25 -3 -28 -12z" />
						<path d="M110 155 l0 -45 80 0 80 0 0 45 c0 51 -14 60 -23 15 -7 -33 -39 -47
		-82 -36 -18 5 -27 15 -32 36 -9 45 -23 36 -23 -15z" />
					</g>
				</symbol>
		<!-- logo-->
		<symbol id="logosvg" viewBox="0 0 160.000000 48.000000">
				<g transform="translate(0.000000,48.000000) scale(0.100000,-0.100000)"
		stroke="none">
		<path d="M1007 463 c-4 -3 -7 -35 -7 -70 l0 -63 -38 6 c-32 5 -43 2 -69 -20
		-57 -48 -67 -187 -19 -259 17 -25 30 -33 60 -35 20 -2 44 2 52 9 11 9 18 9 26
		1 17 -17 65 -15 72 4 3 9 6 107 6 219 0 176 -2 204 -16 209 -21 8 -59 8 -67
		-1z m-18 -207 c7 -9 11 -41 9 -82 -2 -52 -7 -69 -21 -78 -15 -9 -21 -7 -33 9
		-20 26 -15 142 7 156 19 12 25 11 38 -5z"/>
		<path d="M85 445 c-101 -52 -97 -156 9 -234 39 -29 56 -48 56 -64 0 -40 -15
		-49 -76 -51 -57 -1 -59 -2 -62 -30 -5 -37 10 -46 79 -46 42 0 64 6 89 22 43
		30 64 87 50 137 -13 46 -25 60 -82 100 -73 49 -64 101 18 101 37 0 43 3 49 27
		5 20 2 31 -11 40 -24 17 -82 16 -119 -2z"/>
		<path d="M1110 245 l0 -215 235 0 235 0 0 215 0 215 -235 0 -235 0 0 -215z
		m341 158 c1 -10 2 -25 3 -33 0 -8 12 -17 26 -20 21 -5 25 -12 25 -40 0 -28 -4
		-35 -25 -40 -26 -6 -25 -5 -21 -83 1 -11 10 -21 21 -24 16 -4 20 -14 20 -43 0
		-44 -19 -56 -74 -46 -53 10 -74 41 -82 121 -4 38 -13 76 -21 83 -17 18 -17 61
		1 68 8 3 17 16 20 29 9 37 105 61 107 28z m-173 -91 l3 -83 -35 -14 c-65 -27
		-66 -26 -66 86 l0 100 48 -3 47 -3 3 -83z m-20 -138 c47 -33 13 -114 -43 -100
		-33 8 -50 49 -34 79 21 40 42 46 77 21z"/>
		<path d="M355 330 c-59 -24 -92 -105 -79 -195 5 -37 15 -58 40 -83 32 -32 36
		-33 101 -30 l68 3 0 30 c0 29 -2 30 -47 30 -50 1 -78 17 -78 46 0 17 8 19 75
		19 l75 0 0 45 c0 105 -73 169 -155 135z m65 -76 c15 -39 13 -44 -25 -44 -37 0
		-44 14 -25 51 15 27 39 24 50 -7z"/>
		<path d="M565 332 c-6 -4 -9 -66 -7 -159 l3 -153 40 0 39 0 0 108 c0 120 13
		157 47 136 15 -10 18 -28 21 -128 l3 -117 42 3 42 3 3 80 c2 44 0 104 -3 134
		-11 88 -64 123 -135 86 -25 -13 -29 -13 -34 0 -6 16 -44 20 -61 7z"/>
		</g>
		</symbol>
		<!-- logo-footer-->
		<symbol id="logo-footersvg" viewBox="0 0 160.000000 48.000000">
				<g transform="translate(0.000000,48.000000) scale(0.100000,-0.100000)"
		  stroke="none">
		<path d="M1007 463 c-4 -3 -7 -35 -7 -70 l0 -63 -38 6 c-32 5 -43 2 -69 -20
		-57 -48 -67 -187 -19 -259 17 -25 30 -33 60 -35 20 -2 44 2 52 9 11 9 18 9 26
		1 17 -17 65 -15 72 4 3 9 6 107 6 219 0 176 -2 204 -16 209 -21 8 -59 8 -67
		-1z m-18 -207 c7 -9 11 -41 9 -82 -2 -52 -7 -69 -21 -78 -15 -9 -21 -7 -33 9
		-20 26 -15 142 7 156 19 12 25 11 38 -5z"/>
		<path d="M85 445 c-101 -52 -97 -156 9 -234 39 -29 56 -48 56 -64 0 -40 -15
		-49 -76 -51 -57 -1 -59 -2 -62 -30 -5 -37 10 -46 79 -46 42 0 64 6 89 22 43
		30 64 87 50 137 -13 46 -25 60 -82 100 -73 49 -64 101 18 101 37 0 43 3 49 27
		5 20 2 31 -11 40 -24 17 -82 16 -119 -2z"/>
		<path fill="#008DCD" d="M1110 245 l0 -215 235 0 235 0 0 215 0 215 -235 0 -235 0 0 -215z
		m341 158 c1 -10 2 -25 3 -33 0 -8 12 -17 26 -20 21 -5 25 -12 25 -40 0 -28 -4
		-35 -25 -40 -26 -6 -25 -5 -21 -83 1 -11 10 -21 21 -24 16 -4 20 -14 20 -43 0
		-44 -19 -56 -74 -46 -53 10 -74 41 -82 121 -4 38 -13 76 -21 83 -17 18 -17 61
		1 68 8 3 17 16 20 29 9 37 105 61 107 28z m-173 -91 l3 -83 -35 -14 c-65 -27
		-66 -26 -66 86 l0 100 48 -3 47 -3 3 -83z m-20 -138 c47 -33 13 -114 -43 -100
		-33 8 -50 49 -34 79 21 40 42 46 77 21z"/>
		<path d="M355 330 c-59 -24 -92 -105 -79 -195 5 -37 15 -58 40 -83 32 -32 36
		-33 101 -30 l68 3 0 30 c0 29 -2 30 -47 30 -50 1 -78 17 -78 46 0 17 8 19 75
		19 l75 0 0 45 c0 105 -73 169 -155 135z m65 -76 c15 -39 13 -44 -25 -44 -37 0
		-44 14 -25 51 15 27 39 24 50 -7z"/>
		<path d="M565 332 c-6 -4 -9 -66 -7 -159 l3 -153 40 0 39 0 0 108 c0 120 13
		157 47 136 15 -10 18 -28 21 -128 l3 -117 42 3 42 3 3 80 c2 44 0 104 -3 134
		-11 88 -64 123 -135 86 -25 -13 -29 -13 -34 0 -6 16 -44 20 -61 7z"/>
		</g>
		</symbol>
		<!-- advantages-1 -->
		<symbol id="advantages-1svg" viewBox="0 0 84 49">
		<g transform="translate(0.000000,49.000000) scale(0.100000,-0.100000)"
		stroke="none">
		<path d="M17 479 c-15 -9 -17 -26 -17 -134 l0 -125 420 0 420 0 0 23 c0 15
		-26 49 -78 100 -75 74 -79 77 -125 77 -43 0 -47 2 -47 25 0 14 -8 29 -19 35
		-26 13 -530 13 -554 -1z m161 -81 c-3 -7 -13 -15 -24 -16 -29 -6 -42 -22 -16
		-22 29 0 29 -28 0 -32 -15 -2 -24 -11 -26 -25 -2 -13 -10 -23 -18 -23 -17 0
		-17 2 -3 73 l12 57 39 0 c27 0 38 -4 36 -12z m90 0 c16 -16 15 -33 -3 -52 -12
		-12 -13 -20 -5 -35 14 -26 13 -31 -5 -31 -9 0 -20 12 -25 26 -11 28 -30 24
		-30 -7 0 -10 -7 -19 -15 -19 -18 0 -18 1 -4 73 11 55 13 57 43 57 18 0 37 -5
		44 -12z m112 -3 c0 -9 -9 -15 -25 -15 -14 0 -25 -4 -25 -10 0 -5 7 -10 15 -10
		8 0 15 -7 15 -15 0 -8 -9 -15 -20 -15 -11 0 -20 -4 -20 -10 0 -5 11 -10 25
		-10 18 0 23 -4 19 -15 -4 -10 -20 -15 -46 -15 -37 0 -40 2 -35 23 4 12 9 41
		13 65 6 41 7 42 45 42 28 0 39 -4 39 -15z m100 0 c0 -10 -10 -15 -30 -15 -16
		0 -30 -4 -30 -10 0 -5 9 -10 20 -10 11 0 20 -7 20 -15 0 -9 -9 -15 -25 -15
		-14 0 -25 -4 -25 -10 0 -5 11 -10 25 -10 16 0 25 -6 25 -15 0 -11 -11 -15 -41
		-15 l-41 0 6 38 c17 96 14 92 57 92 28 0 39 -4 39 -15z m247 -57 c29 -29 53
		-56 53 -60 0 -4 -34 -8 -75 -8 l-75 0 0 60 c0 55 2 60 22 60 14 0 43 -21 75
		-52z"/>
		<path d="M215 369 c-12 -19 5 -23 22 -6 16 16 16 17 1 17 -9 0 -20 -5 -23 -11z"/>
		<path d="M2 148 c3 -52 4 -53 36 -56 26 -3 34 1 41 21 29 76 162 74 186 -3 6
		-19 16 -20 160 -20 144 0 154 1 160 20 24 77 157 79 186 3 7 -19 15 -24 37
		-21 25 3 27 7 30 56 l3 52 -421 0 -421 0 3 -52z"/>
		<path d="M121 114 c-12 -15 -21 -35 -21 -45 0 -54 93 -81 124 -37 51 72 -49
		151 -103 82z m85 -31 c5 -19 2 -30 -11 -40 -23 -16 -27 -16 -50 0 -13 10 -16
		21 -11 40 5 22 12 27 36 27 24 0 31 -5 36 -27z"/>
		<path d="M630 120 c-24 -24 -26 -57 -4 -88 31 -44 124 -17 124 37 0 10 -9 30
		-21 45 -25 32 -70 35 -99 6z m78 -22 c32 -32 -8 -80 -48 -58 -19 10 -27 49
		-13 63 11 11 48 8 61 -5z"/>
		</g>
		</symbol>
		<!-- advantages-2 -->
		<symbol id="advantages-2svg" viewBox="0 0 62.000000 76.000000">
		<g transform="translate(0.000000,76.000000) scale(0.100000,-0.100000)"
		stroke="none">
		<path d="M232 752 c-7 -2 -17 -15 -22 -27 -5 -13 -19 -25 -32 -27 -26 -3 -37
		-36 -16 -49 7 -5 45 -9 83 -9 39 0 76 4 83 9 21 13 10 46 -16 49 -13 2 -27 14
		-32 26 -9 25 -27 36 -48 28z m31 -18 c9 -10 -4 -34 -19 -34 -8 0 -14 9 -14 20
		0 19 19 27 33 14z"/>
		<path d="M9 653 c-6 -16 -9 -128 -7 -290 3 -221 5 -265 18 -273 8 -5 77 -10
		154 -10 122 0 137 2 132 16 -3 9 -6 20 -6 25 0 5 -56 9 -125 9 l-125 0 0 220
		0 220 195 0 195 0 0 -125 0 -125 26 0 25 0 -3 170 c-3 191 -3 190 -75 190 -35
		0 -42 -3 -45 -22 -4 -33 -44 -48 -123 -48 -79 0 -119 15 -123 48 -3 19 -9 22
		-53 22 -45 0 -51 -3 -60 -27z"/>
		<path d="M146 511 c-11 -12 -25 -17 -34 -13 -15 5 -15 4 -3 -12 14 -16 16 -16
		40 8 14 14 23 28 20 31 -3 3 -14 -4 -23 -14z"/>
		<path d="M200 495 c0 -12 16 -15 96 -15 72 0 95 3 92 13 -3 8 -34 13 -96 15
		-77 2 -92 0 -92 -13z"/>
		<path d="M145 410 c-14 -15 -21 -17 -32 -9 -8 7 -13 8 -13 1 0 -8 22 -22 35
		-22 1 0 10 11 19 25 20 30 16 32 -9 5z"/>
		<path d="M200 395 c0 -13 15 -15 92 -13 62 2 93 7 96 16 3 9 -20 12 -92 12
		-80 0 -96 -3 -96 -15z"/>
		<path d="M146 321 c-11 -12 -25 -17 -34 -14 -13 5 -14 3 -5 -7 15 -16 38 -7
		53 19 14 26 8 27 -14 2z"/>
		<path d="M200 310 c0 -6 28 -10 65 -10 37 0 65 4 65 10 0 6 -28 10 -65 10 -37
		0 -65 -4 -65 -10z"/>
		<path d="M421 262 c-51 -26 -76 -65 -76 -121 0 -60 24 -97 81 -122 37 -17 50
		-18 85 -9 122 33 139 200 26 254 -45 21 -73 20 -116 -2z m157 -72 c3 -16 -93
		-130 -109 -130 -19 0 -79 55 -79 71 0 25 26 30 51 10 21 -17 23 -17 62 26 40
		43 69 52 75 23z"/>
		<path d="M150 230 c-8 -16 -17 -19 -33 -14 -20 6 -20 5 -8 -10 13 -16 16 -15
		40 8 14 14 22 28 19 32 -4 3 -12 -4 -18 -16z"/>
		<path d="M200 210 c0 -5 25 -10 55 -10 30 0 55 5 55 10 0 6 -25 10 -55 10 -30
		0 -55 -4 -55 -10z"/>
		</g>
		</symbol>
		<!-- advantages-3 -->
		<symbol id="advantages-3svg" viewBox="0 0 66.000000 66.000000">
		<g transform="translate(0.000000,66.000000) scale(0.100000,-0.100000)"
		stroke="none">
		<path d="M300 645 c-14 -8 -44 -14 -67 -15 -32 0 -46 -5 -58 -22 -8 -13 -30
		-28 -47 -34 -22 -7 -35 -20 -42 -42 -6 -17 -21 -39 -33 -47 -17 -12 -23 -26
		-23 -56 0 -22 -7 -53 -15 -69 -14 -27 -14 -33 0 -60 8 -16 15 -47 15 -69 0
		-30 6 -44 23 -56 12 -8 27 -30 33 -47 7 -22 20 -35 42 -42 17 -6 39 -21 47
		-33 12 -17 26 -23 56 -23 22 0 53 -7 69 -15 27 -14 33 -14 60 0 16 8 47 15 69
		15 30 0 44 6 56 23 8 12 30 27 47 33 22 7 35 20 42 42 6 17 21 39 34 47 16 12
		22 26 22 56 0 22 7 53 15 69 14 27 14 33 0 60 -8 16 -15 47 -15 69 0 30 -6 44
		-22 56 -13 8 -28 30 -34 47 -7 22 -20 35 -42 42 -17 6 -39 21 -47 34 -12 17
		-26 22 -58 22 -23 1 -53 7 -67 15 -14 8 -27 14 -30 14 -3 0 -16 -6 -30 -14z
		m146 -121 c30 -18 60 -48 79 -78 25 -42 30 -59 30 -116 0 -57 -5 -74 -30 -116
		-19 -30 -49 -60 -79 -79 -42 -25 -59 -30 -116 -30 -57 0 -74 5 -116 30 -157
		97 -147 316 18 399 71 37 145 33 214 -10z"/>
		<path d="M303 416 c-13 -27 -23 -35 -54 -40 -46 -7 -48 -14 -13 -47 22 -21 25
		-29 19 -66 -7 -48 1 -53 41 -26 26 17 28 17 97 -12 17 -7 18 -4 12 36 -6 39
		-4 47 19 68 35 33 33 40 -13 47 -31 5 -41 13 -54 40 -9 19 -21 34 -27 34 -6 0
		-18 -15 -27 -34z"/>
		</g>
		</symbol>
		<!-- advantages-4 -->
		<symbol id="advantages-4svg" viewBox="0 0 68.000000 61.000000">
		<g transform="translate(0.000000,61.000000) scale(0.100000,-0.100000)"
		stroke="none">
		<path d="M185 585 c-24 -23 -25 -30 -25 -144 0 -117 1 -120 26 -140 19 -15 41
		-21 75 -21 42 0 49 3 49 20 0 15 7 20 25 20 18 0 25 -5 25 -20 0 -17 7 -20 53
		-20 31 0 61 6 75 16 21 14 22 22 22 148 0 156 -1 158 -91 164 -58 4 -59 4 -59
		-22 0 -21 -5 -26 -25 -26 -20 0 -25 5 -25 25 0 23 -3 25 -50 25 -41 0 -56 -5
		-75 -25z m187 -92 c33 -32 35 -43 8 -43 -17 0 -20 -7 -20 -50 0 -43 -3 -50
		-20 -50 -17 0 -20 7 -20 49 0 43 -3 50 -22 53 -21 3 -21 4 6 36 15 17 31 32
		34 32 3 0 19 -12 34 -27z"/>
		<path d="M100 286 c0 -12 75 -74 83 -69 5 3 2 12 -7 21 -17 19 -76 56 -76 48z"/>
		<path d="M60 266 c0 -3 19 -23 43 -45 48 -46 87 -57 44 -13 -26 27 -87 68 -87
		58z"/>
		<path d="M580 245 c0 -23 -2 -25 -22 -14 -32 17 -109 15 -145 -4 -22 -12 -57
		-17 -113 -17 -67 0 -83 -3 -100 -20 -24 -24 -24 -29 -4 -58 14 -20 23 -22 108
		-22 66 0 98 -4 112 -15 17 -13 7 -14 -97 -15 l-115 0 -84 80 c-78 76 -108 92
		-117 63 -3 -7 32 -50 77 -97 66 -68 92 -88 133 -102 74 -25 166 -21 271 10 48
		14 90 26 92 26 2 0 4 -9 4 -20 0 -17 7 -20 50 -20 l50 0 0 125 0 125 -50 0
		c-47 0 -50 -2 -50 -25z"/>
		</g>
		</symbol>
		<!-- advantages-5 -->
		<symbol id="advantages-5svg" viewBox="0 0 68.000000 66.000000">
		<g transform="translate(0.000000,66.000000) scale(0.100000,-0.100000)"
		stroke="none">
		<path d="M216 640 c-97 -31 -161 -109 -173 -213 -3 -29 -14 -63 -25 -76 -11
		-15 -18 -40 -18 -68 0 -54 33 -93 78 -93 24 0 32 -6 42 -31 16 -38 87 -112
		131 -135 20 -11 57 -18 90 -18 77 -1 139 38 193 121 34 50 46 62 69 62 16 1
		39 12 52 26 31 30 34 100 7 136 -11 13 -22 47 -25 76 -21 180 -215 279 -421
		213z m266 -34 c73 -35 118 -102 132 -194 5 -37 4 -43 -9 -40 -9 2 -24 25 -33
		53 -26 76 -58 114 -120 143 -47 21 -64 24 -132 20 -117 -7 -173 -50 -212 -163
		-21 -62 -44 -68 -40 -10 7 92 66 167 159 201 53 20 206 14 255 -10z m-142
		-209 c60 -25 83 -30 76 -18 -12 19 47 12 94 -11 l45 -23 -2 -57 c-6 -171 -158
		-296 -283 -233 -35 17 -100 73 -100 85 0 10 108 -14 122 -28 25 -25 98 -5 98
		27 0 27 -80 45 -95 21 -16 -26 -133 9 -153 47 -6 10 -13 39 -17 65 -7 46 -7
		46 29 63 42 20 73 60 82 105 l7 31 31 -30 c17 -16 47 -36 66 -44z"/>
		<path d="M230 315 c-18 -21 -5 -47 22 -43 26 3 37 36 16 49 -18 12 -24 11 -38
		-6z"/>
		<path d="M412 321 c-21 -13 -10 -46 16 -49 27 -4 40 22 22 43 -14 17 -20 18
		-38 6z"/>
		</g>
		</symbol>
		<!-- advantages-6 -->
		<symbol id="advantages-6svg" viewBox="0 0 47.000000 36.000000">
		<g transform="translate(0.000000,36.000000) scale(0.100000,-0.100000)"
		stroke="none">
		<path d="M2 233 c2 -90 7 -128 16 -131 9 -3 12 27 12 127 0 111 -2 131 -15
		131 -13 0 -15 -18 -13 -127z"/>
		<path d="M70 230 c0 -123 1 -130 20 -130 19 0 20 7 20 130 0 123 -1 130 -20
		130 -19 0 -20 -7 -20 -130z"/>
		<path d="M150 236 c0 -73 4 -127 10 -131 6 -4 10 40 10 124 0 81 -4 131 -10
		131 -6 0 -10 -48 -10 -124z"/>
		<path d="M200 300 l0 -61 25 18 c19 14 24 27 25 61 0 38 -2 42 -25 42 -24 0
		-25 -3 -25 -60z"/>
		<path d="M293 325 c0 -22 2 -30 4 -17 2 12 2 30 0 40 -3 9 -5 -1 -4 -23z"/>
		<path d="M333 325 c0 -22 2 -30 4 -17 2 12 2 30 0 40 -3 9 -5 -1 -4 -23z"/>
		<path d="M360 321 c0 -22 5 -43 10 -46 6 -4 10 12 10 39 0 25 -4 46 -10 46 -5
		0 -10 -18 -10 -39z"/>
		<path d="M264 256 c-43 -19 -64 -53 -64 -102 0 -79 80 -135 147 -105 23 11 29
		9 58 -19 56 -55 84 -31 31 28 -25 27 -32 42 -25 52 27 43 -2 119 -55 144 -41
		19 -51 19 -92 2z m109 -47 c25 -31 22 -85 -8 -114 -63 -64 -171 12 -133 93 26
		54 104 65 141 21z"/>
		</g>
		</symbol>



		<!-- guarantees-1 -->
		<symbol id="guarantees-1svg" viewBox="0 0 75.000000 70.000000">
		<g transform="translate(0.000000,70.000000) scale(0.100000,-0.100000)"
		stroke="none">
		<path d="M177 688 c-8 -7 -36 -40 -61 -72 -36 -47 -46 -68 -46 -98 0 -44 12
		-49 28 -13 15 32 55 42 87 21 20 -13 38 -15 84 -10 50 5 62 3 78 -13 12 -12
		36 -85 67 -208 53 -204 53 -228 6 -252 -21 -11 -1 -13 133 -13 216 0 199 -26
		195 288 l-3 248 -50 60 c-27 32 -54 62 -60 66 -18 14 -439 9 -458 -4z m471
		-20 c23 -23 11 -28 -79 -28 -57 0 -88 -4 -84 -10 3 -6 50 -10 105 -10 89 0
		100 -2 110 -20 11 -20 8 -20 -290 -20 -165 0 -300 4 -300 8 0 24 30 32 116 32
		51 0 96 5 99 10 4 6 -25 10 -79 10 -85 0 -97 5 -74 28 17 17 459 17 476 0z"/>
		<path d="M131 476 c-5 -13 -17 -26 -26 -30 -14 -5 -15 -9 -6 -20 10 -12 20
		-12 60 -1 55 14 71 22 71 34 0 12 -60 20 -66 9 -3 -4 -9 -8 -15 -8 -14 0 -11
		28 4 33 9 4 9 6 -1 6 -7 1 -17 -10 -21 -23z"/>
		<path d="M263 473 c-7 -2 -13 -13 -13 -23 0 -24 -19 -34 -92 -50 -52 -12 -60
		-11 -78 5 -21 19 -64 15 -73 -8 -3 -7 14 -87 38 -178 53 -205 53 -206 68 -212
		21 -8 290 68 300 84 8 13 -55 289 -83 365 -9 23 -36 30 -67 17z m85 -198 c17
		-66 34 -132 38 -146 5 -26 3 -27 -73 -47 -117 -32 -182 -46 -188 -41 -9 10
		-78 289 -72 295 11 11 252 72 258 65 3 -3 20 -60 37 -126z"/>
		<path d="M178 326 c-66 -18 -108 -36 -84 -36 17 0 172 42 186 51 26 15 -17 9
		-102 -15z"/>
		<path d="M188 257 c-43 -11 -78 -24 -78 -28 0 -7 190 38 199 47 10 10 -50 1
		-121 -19z"/>
		<path d="M200 197 c-80 -22 -86 -24 -79 -32 8 -7 159 36 159 46 0 5 -1 9 -2 8
		-2 0 -37 -10 -78 -22z"/>
		<path d="M196 124 c-26 -7 -51 -16 -55 -20 -8 -9 53 2 110 20 58 18 12 19 -55
		0z"/>
		</g>
		</symbol>
		<!-- guarantees-2 -->
		<symbol id="guarantees-2svg" viewBox="0 0 75.000000 82.000000">
		<g transform="translate(0.000000,82.000000) scale(0.100000,-0.100000)"
		stroke="none">
		<path d="M312 801 c-51 -18 -104 -58 -123 -93 -13 -24 30 -71 97 -104 44 -22
		64 -26 109 -22 61 5 134 45 168 91 l21 27 -35 36 c-66 70 -155 94 -237 65z
		m153 -25 c58 -27 100 -68 92 -90 -9 -22 -88 -73 -135 -85 -31 -9 -53 -9 -84 0
		-49 13 -123 61 -132 85 -9 23 26 58 88 89 62 31 107 31 171 1z"/>
		<path d="M383 753 c19 -21 15 -48 -9 -57 -23 -9 -44 4 -44 28 0 17 -2 18 -10
		6 -27 -42 9 -100 61 -100 33 0 69 34 69 66 0 28 -28 60 -60 69 -24 7 -25 7 -7
		-12z"/>
		<path d="M216 482 l-139 -27 -38 -82 c-29 -65 -34 -83 -22 -83 50 0 260 24
		268 31 6 4 26 44 45 88 18 45 37 81 41 81 3 0 24 -39 45 -86 21 -47 46 -90 55
		-95 10 -5 50 -9 89 -9 l71 0 -3 -102 -3 -102 -90 -17 c-49 -9 -107 -20 -127
		-24 l-38 -7 0 178 -1 179 -25 -61 -25 -62 -57 -5 c-31 -4 -87 -9 -125 -13
		l-67 -6 0 -94 c0 -67 4 -96 13 -99 6 -3 74 -18 151 -34 l138 -29 149 31 149
		31 0 113 0 113 35 0 c19 0 35 4 35 9 0 5 -16 42 -35 83 l-36 75 -147 26 c-81
		15 -152 27 -157 26 -6 0 -72 -13 -149 -27z"/>
		</g>
		</symbol>

		<!-- guarantees-3 -->
		<symbol id="guarantees-3svg" viewBox="0 0 67.000000 69.000000">
		<g transform="translate(0.000000,69.000000) scale(0.100000,-0.100000)"
		stroke="none">
		<path d="M37 679 c-47 -27 -39 -98 13 -119 69 -29 122 63 64 109 -29 23 -50
		26 -77 10z"/>
		<path d="M552 667 c-35 -37 -24 -89 24 -107 51 -20 104 33 84 84 -18 48 -73
		60 -108 23z"/>
		<path d="M217 543 c-4 -3 -7 -29 -7 -58 0 -45 4 -55 34 -84 31 -30 37 -32 92
		-29 l59 3 3 79 c3 86 -2 96 -50 96 -18 0 -28 -5 -28 -15 0 -8 -7 -15 -15 -15
		-8 0 -15 7 -15 15 0 10 -10 15 -33 15 -19 0 -37 -3 -40 -7z m116 -90 c-7 -3
		-13 -18 -13 -35 0 -22 -4 -29 -17 -26 -25 5 -36 68 -15 91 15 17 17 17 36 -4
		15 -15 17 -23 9 -26z"/>
		<path d="M42 488 c-15 -15 -17 -219 -2 -234 7 -7 6 -43 -5 -112 -19 -129 -19
		-132 4 -132 16 0 20 10 26 65 4 36 11 63 15 60 4 -2 13 -32 20 -65 13 -62 25
		-79 41 -63 6 6 1 48 -14 114 -18 79 -23 124 -20 189 6 121 6 121 61 67 46 -45
		82 -60 82 -35 0 20 -153 157 -175 158 -12 0 -26 -5 -33 -12z"/>
		<path d="M498 426 c-43 -40 -78 -78 -78 -85 0 -24 37 -9 82 36 55 54 55 54 61
		-67 3 -65 -2 -109 -20 -189 -16 -68 -21 -107 -15 -113 17 -17 29 -1 42 62 7
		33 16 63 20 65 4 3 11 -24 15 -60 6 -55 10 -65 26 -65 23 0 23 6 3 132 -11 72
		-13 103 -5 111 16 16 15 219 -1 235 -24 24 -55 10 -130 -62z"/>
		</g>
		</symbol>
		<symbol id="lines" viewBox="0 0 40 29">
		<path d="M0 0H40V4H0V0Z" />
		<path d="M0 12H40V16H0V12Z" />
		<path d="M0 25H40V29H0V25Z" />
		</symbol>
		<symbol id="cross" viewBox="0 0 31 30">
		<path d="M3.50592 0L30.376 26.8701L27.5475 29.6985L0.677491 2.82843L3.50592 0Z" />
		<path d="M30.3757 2.82843L3.50567 29.6985L0.677246 26.8701L27.5473 2.38419e-07L30.3757 2.82843Z" />
		</symbol>
		<symbol id="modal__icon" viewBox="0 0 13 13">
		<path d="M11.9967 1.39024L6.69338 6.69354M1.39008 11.9968L6.69338 6.69354M6.69338 6.69354L11.9097 11.9099M6.69338 6.69354L1.30314 1.3033"  stroke-linecap="round" stroke-linejoin="round"/>
		</symbol>
</svg>
